<svg id="visual" viewBox="0 0 900 600" width="900" height="600" xmlns="http://www.w3.org/2000/svg" xmlns:xlink="http://www.w3.org/1999/xlink" version="1.1"><rect x="0" y="0" width="900" height="600" fill="#001220"></rect><path d="M0 401L21.5 401.7C43 402.3 86 403.7 128.8 411C171.7 418.3 214.3 431.7 257.2 434.8C300 438 343 431 385.8 435C428.7 439 471.3 454 514.2 453C557 452 600 435 642.8 435.2C685.7 435.3 728.3 452.7 771.2 454.7C814 456.7 857 443.3 878.5 436.7L900 430L900 601L878.5 601C857 601 814 601 771.2 601C728.3 601 685.7 601 642.8 601C600 601 557 601 514.2 601C471.3 601 428.7 601 385.8 601C343 601 300 601 257.2 601C214.3 601 171.7 601 128.8 601C86 601 43 601 21.5 601L0 601Z" fill="#0066ff"></path><path d="M0 442L21.5 451.2C43 460.3 86 478.7 128.8 489C171.7 499.3 214.3 501.7 257.2 495.2C300 488.7 343 473.3 385.8 469.8C428.7 466.3 471.3 474.7 514.2 473.5C557 472.3 600 461.7 642.8 463.3C685.7 465 728.3 479 771.2 485.7C814 492.3 857 491.7 878.5 491.3L900 491L900 601L878.5 601C857 601 814 601 771.2 601C728.3 601 685.7 601 642.8 601C600 601 557 601 514.2 601C471.3 601 428.7 601 385.8 601C343 601 300 601 257.2 601C214.3 601 171.7 601 128.8 601C86 601 43 601 21.5 601L0 601Z" fill="#8c4ddc"></path><path d="M0 488L21.5 492.7C43 497.3 86 506.7 128.8 510.3C171.7 514 214.3 512 257.2 506.3C300 500.7 343 491.3 385.8 488C428.7 484.7 471.3 487.3 514.2 494.7C557 502 600 514 642.8 511.3C685.7 508.7 728.3 491.3 771.2 482.5C814 473.7 857 473.3 878.5 473.2L900 473L900 601L878.5 601C857 601 814 601 771.2 601C728.3 601 685.7 601 642.8 601C600 601 557 601 514.2 601C471.3 601 428.7 601 385.8 601C343 601 300 601 257.2 601C214.3 601 171.7 601 128.8 601C86 601 43 601 21.5 601L0 601Z" fill="#b434b4"></path><path d="M0 529L21.5 527C43 525 86 521 128.8 519.2C171.7 517.3 214.3 517.7 257.2 523.3C300 529 343 540 385.8 545.7C428.7 551.3 471.3 551.7 514.2 548C557 544.3 600 536.7 642.8 534.8C685.7 533 728.3 537 771.2 536.2C814 535.3 857 529.7 878.5 526.8L900 524L900 601L878.5 601C857 601 814 601 771.2 601C728.3 601 685.7 601 642.8 601C600 601 557 601 514.2 601C471.3 601 428.7 601 385.8 601C343 601 300 601 257.2 601C214.3 601 171.7 601 128.8 601C86 601 43 601 21.5 601L0 601Z" fill="#c5218c"></path><path d="M0 558L21.5 555.5C43 553 86 548 128.8 547.7C171.7 547.3 214.3 551.7 257.2 556.7C300 561.7 343 567.3 385.8 566C428.7 564.7 471.3 556.3 514.2 551.5C557 546.7 600 545.3 642.8 549.2C685.7 553 728.3 562 771.2 565.8C814 569.7 857 568.3 878.5 567.7L900 567L900 601L878.5 601C857 601 814 601 771.2 601C728.3 601 685.7 601 642.8 601C600 601 557 601 514.2 601C471.3 601 428.7 601 385.8 601C343 601 300 601 257.2 601C214.3 601 171.7 601 128.8 601C86 601 43 601 21.5 601L0 601Z" fill="#c62368"></path></svg>