<svg id="visual" viewBox="0 0 900 600" width="900" height="600" xmlns="http://www.w3.org/2000/svg" xmlns:xlink="http://www.w3.org/1999/xlink" version="1.1"><rect x="0" y="0" width="900" height="600" fill="#001111"></rect><path d="M0 181L21.5 183.8C43 186.7 86 192.3 128.8 195C171.7 197.7 214.3 197.3 257.2 193.2C300 189 343 181 385.8 169C428.7 157 471.3 141 514.2 132C557 123 600 121 642.8 127.8C685.7 134.7 728.3 150.3 771.2 161.8C814 173.3 857 180.7 878.5 184.3L900 188L900 0L878.5 0C857 0 814 0 771.2 0C728.3 0 685.7 0 642.8 0C600 0 557 0 514.2 0C471.3 0 428.7 0 385.8 0C343 0 300 0 257.2 0C214.3 0 171.7 0 128.8 0C86 0 43 0 21.5 0L0 0Z" fill="#282627"></path><path d="M0 155L21.5 145.2C43 135.3 86 115.7 128.8 108.2C171.7 100.7 214.3 105.3 257.2 116.2C300 127 343 144 385.8 142.5C428.7 141 471.3 121 514.2 120.3C557 119.7 600 138.3 642.8 139C685.7 139.7 728.3 122.3 771.2 123.3C814 124.3 857 143.7 878.5 153.3L900 163L900 0L878.5 0C857 0 814 0 771.2 0C728.3 0 685.7 0 642.8 0C600 0 557 0 514.2 0C471.3 0 428.7 0 385.8 0C343 0 300 0 257.2 0C214.3 0 171.7 0 128.8 0C86 0 43 0 21.5 0L0 0Z" fill="#4c2c3c"></path><path d="M0 72L21.5 80.5C43 89 86 106 128.8 106.7C171.7 107.3 214.3 91.7 257.2 90.7C300 89.7 343 103.3 385.8 105.5C428.7 107.7 471.3 98.3 514.2 98.7C557 99 600 109 642.8 114.3C685.7 119.7 728.3 120.3 771.2 115.3C814 110.3 857 99.7 878.5 94.3L900 89L900 0L878.5 0C857 0 814 0 771.2 0C728.3 0 685.7 0 642.8 0C600 0 557 0 514.2 0C471.3 0 428.7 0 385.8 0C343 0 300 0 257.2 0C214.3 0 171.7 0 128.8 0C86 0 43 0 21.5 0L0 0Z" fill="#722f4e"></path><path d="M0 77L21.5 78.3C43 79.7 86 82.3 128.8 77.3C171.7 72.3 214.3 59.7 257.2 53.5C300 47.3 343 47.7 385.8 49.8C428.7 52 471.3 56 514.2 55.3C557 54.7 600 49.3 642.8 51.2C685.7 53 728.3 62 771.2 66.3C814 70.7 857 70.3 878.5 70.2L900 70L900 0L878.5 0C857 0 814 0 771.2 0C728.3 0 685.7 0 642.8 0C600 0 557 0 514.2 0C471.3 0 428.7 0 385.8 0C343 0 300 0 257.2 0C214.3 0 171.7 0 128.8 0C86 0 43 0 21.5 0L0 0Z" fill="#9b2d5d"></path><path d="M0 49L21.5 45.8C43 42.7 86 36.3 128.8 34.3C171.7 32.3 214.3 34.7 257.2 38.2C300 41.7 343 46.3 385.8 48.5C428.7 50.7 471.3 50.3 514.2 50.8C557 51.3 600 52.7 642.8 52.2C685.7 51.7 728.3 49.3 771.2 43.8C814 38.3 857 29.7 878.5 25.3L900 21L900 0L878.5 0C857 0 814 0 771.2 0C728.3 0 685.7 0 642.8 0C600 0 557 0 514.2 0C471.3 0 428.7 0 385.8 0C343 0 300 0 257.2 0C214.3 0 171.7 0 128.8 0C86 0 43 0 21.5 0L0 0Z" fill="#c62368"></path></svg>