<svg id="visual" viewBox="0 0 900 600" width="900" height="600" xmlns="http://www.w3.org/2000/svg" xmlns:xlink="http://www.w3.org/1999/xlink" version="1.1"><rect x="0" y="0" width="900" height="600" fill="#001220"></rect><path d="M0 197L21.5 196.3C43 195.7 86 194.3 128.8 187C171.7 179.7 214.3 166.3 257.2 163.2C300 160 343 167 385.8 163C428.7 159 471.3 144 514.2 145C557 146 600 163 642.8 162.8C685.7 162.7 728.3 145.3 771.2 143.3C814 141.3 857 154.7 878.5 161.3L900 168L900 0L878.5 0C857 0 814 0 771.2 0C728.3 0 685.7 0 642.8 0C600 0 557 0 514.2 0C471.3 0 428.7 0 385.8 0C343 0 300 0 257.2 0C214.3 0 171.7 0 128.8 0C86 0 43 0 21.5 0L0 0Z" fill="#0066ff"></path><path d="M0 156L21.5 146.8C43 137.7 86 119.3 128.8 109C171.7 98.7 214.3 96.3 257.2 102.8C300 109.3 343 124.7 385.8 128.2C428.7 131.7 471.3 123.3 514.2 124.5C557 125.7 600 136.3 642.8 134.7C685.7 133 728.3 119 771.2 112.3C814 105.7 857 106.3 878.5 106.7L900 107L900 0L878.5 0C857 0 814 0 771.2 0C728.3 0 685.7 0 642.8 0C600 0 557 0 514.2 0C471.3 0 428.7 0 385.8 0C343 0 300 0 257.2 0C214.3 0 171.7 0 128.8 0C86 0 43 0 21.5 0L0 0Z" fill="#8c4ddc"></path><path d="M0 110L21.5 105.3C43 100.7 86 91.3 128.8 87.7C171.7 84 214.3 86 257.2 91.7C300 97.3 343 106.7 385.8 110C428.7 113.3 471.3 110.7 514.2 103.3C557 96 600 84 642.8 86.7C685.7 89.3 728.3 106.7 771.2 115.5C814 124.3 857 124.7 878.5 124.8L900 125L900 0L878.5 0C857 0 814 0 771.2 0C728.3 0 685.7 0 642.8 0C600 0 557 0 514.2 0C471.3 0 428.7 0 385.8 0C343 0 300 0 257.2 0C214.3 0 171.7 0 128.8 0C86 0 43 0 21.5 0L0 0Z" fill="#b434b4"></path><path d="M0 69L21.5 71C43 73 86 77 128.8 78.8C171.7 80.7 214.3 80.3 257.2 74.7C300 69 343 58 385.8 52.3C428.7 46.7 471.3 46.3 514.2 50C557 53.7 600 61.3 642.8 63.2C685.7 65 728.3 61 771.2 61.8C814 62.7 857 68.3 878.5 71.2L900 74L900 0L878.5 0C857 0 814 0 771.2 0C728.3 0 685.7 0 642.8 0C600 0 557 0 514.2 0C471.3 0 428.7 0 385.8 0C343 0 300 0 257.2 0C214.3 0 171.7 0 128.8 0C86 0 43 0 21.5 0L0 0Z" fill="#c5218c"></path><path d="M0 40L21.5 42.5C43 45 86 50 128.8 50.3C171.7 50.7 214.3 46.3 257.2 41.3C300 36.3 343 30.7 385.8 32C428.7 33.3 471.3 41.7 514.2 46.5C557 51.3 600 52.7 642.8 48.8C685.7 45 728.3 36 771.2 32.2C814 28.3 857 29.7 878.5 30.3L900 31L900 0L878.5 0C857 0 814 0 771.2 0C728.3 0 685.7 0 642.8 0C600 0 557 0 514.2 0C471.3 0 428.7 0 385.8 0C343 0 300 0 257.2 0C214.3 0 171.7 0 128.8 0C86 0 43 0 21.5 0L0 0Z" fill="#c62368"></path></svg>